<?xml version="1.0" encoding="UTF-8"?>
<!DOCTYPE svg PUBLIC "-//W3C//DTD SVG 1.1//EN" "http://www.w3.org/Graphics/SVG/1.1/DTD/svg11.dtd">
<svg version="1.1" xmlns="http://www.w3.org/2000/svg" xmlns:xlink="http://www.w3.org/1999/xlink" x="0" y="0" width="330.6" height="330.6" viewBox="0, 0, 3306, 3306">
  <defs>
    <clipPath id="Clip_1">
      <path d="M-0,0.71 L3305.27,0.71 L3305.27,3305.94 L-0,3305.94 z"/>
    </clipPath>
  </defs>
  <g id="Layer_1">
    <g clip-path="url(#Clip_1)">
      <path d="M150.96,3155.03 L873.835,3155.03 L873.835,2432.15 L150.96,2432.15 z M3229.47,1205.81 C3271.18,1205.81 3304.93,1172.02 3304.93,1130.32 L3304.93,88.783 C3309.32,34.597 3271.36,-3.343 3217.15,1.057 L2175.68,1.057 C2076.29,1.057 2076.29,152.017 2175.68,152.017 L3047.24,152.017 L1251.14,1948.11 C1179.89,2019.34 1288.68,2124.09 1357.87,2054.82 L3153.98,258.72 L3153.98,1130.32 C3153.98,1172.02 3187.76,1205.81 3229.47,1205.81 z M2739.86,3306 L75.486,3306 C33.777,3306 -0,3272.22 -0,3230.51 L-0,566.103 C-0,524.407 33.777,490.616 75.486,490.616 L2175.68,490.616 C2275.04,490.616 2275.04,641.576 2175.68,641.576 L150.96,641.576 L150.96,2281.2 L949.309,2281.2 C991.004,2281.2 1024.79,2314.98 1024.79,2356.69 L1024.79,3155.03 L2664.4,3155.03 L2664.4,1130.32 C2664.4,1030.96 2815.34,1030.96 2815.34,1130.32 L2815.34,3230.51 C2815.34,3272.22 2781.57,3306 2739.86,3306" fill="#606060"/>
    </g>
    <path d="M150.96,2432.15 L873.835,2432.15 L873.835,3155.03 L150.96,3155.03 z" fill="#A9A9A9"/>
  </g>
</svg>
